<mxfile host="65bd71144e">
    <diagram id="jgfimKjPSfEpPZHp9-Ew" name="Page-1">
        <mxGraphModel dx="925" dy="642" grid="1" gridSize="10" guides="1" tooltips="1" connect="1" arrows="1" fold="1" page="1" pageScale="1" pageWidth="850" pageHeight="1100" math="0" shadow="0">
            <root>
                <mxCell id="0"/>
                <mxCell id="1" parent="0"/>
                <mxCell id="2" value="clerk?" style="whiteSpace=wrap;html=1;fillColor=#e1d5e7;strokeColor=#9673a6;" vertex="1" parent="1">
                    <mxGeometry x="120" y="220" width="120" height="60" as="geometry"/>
                </mxCell>
                <mxCell id="3" value="mongoDB" style="whiteSpace=wrap;html=1;fillColor=#d5e8d4;strokeColor=#82b366;" vertex="1" parent="1">
                    <mxGeometry x="310" y="220" width="120" height="60" as="geometry"/>
                </mxCell>
                <mxCell id="4" value="- to store drinks info&lt;div&gt;&lt;font style=&quot;color: rgb(255, 255, 255);&quot;&gt;- gives admin panel option&lt;/font&gt;&lt;/div&gt;&lt;div&gt;&lt;font style=&quot;color: rgb(255, 255, 255);&quot;&gt;add + remove drinks&lt;/font&gt;&lt;/div&gt;" style="whiteSpace=wrap;html=1;fillColor=#60a917;strokeColor=#2D7600;fontColor=#ffffff;align=left;" vertex="1" parent="1">
                    <mxGeometry x="295" y="280" width="150" height="50" as="geometry"/>
                </mxCell>
                <mxCell id="6" value="Drink Schema&lt;div&gt;- Product Id&lt;/div&gt;&lt;div&gt;- Title&lt;/div&gt;&lt;div&gt;- Sub-Title&lt;/div&gt;&lt;div&gt;- Description&lt;/div&gt;&lt;div&gt;- image&lt;/div&gt;&lt;div&gt;- recommendations [array of Product id&#39;s]&lt;/div&gt;" style="whiteSpace=wrap;html=1;align=left;fillColor=#d5e8d4;strokeColor=#82b366;" vertex="1" parent="1">
                    <mxGeometry x="295" y="340" width="155" height="170" as="geometry"/>
                </mxCell>
                <mxCell id="7" value="OR" style="whiteSpace=wrap;html=1;fillColor=#f8cecc;strokeColor=#b85450;" vertex="1" parent="1">
                    <mxGeometry x="490" y="230" width="50" height="40" as="geometry"/>
                </mxCell>
                <mxCell id="8" value="stock file that statically stores all beverages info" style="whiteSpace=wrap;html=1;fillColor=#e1d5e7;strokeColor=#9673a6;" vertex="1" parent="1">
                    <mxGeometry x="570" y="220" width="120" height="70" as="geometry"/>
                </mxCell>
                <mxCell id="9" value="Drink Schema&lt;div&gt;- Title&lt;/div&gt;&lt;div&gt;- Sub-Title&lt;/div&gt;&lt;div&gt;- Description&lt;/div&gt;&lt;div&gt;- image&lt;/div&gt;&lt;div&gt;- recommendations [array of Product id&#39;s]&lt;/div&gt;" style="whiteSpace=wrap;html=1;align=left;fillColor=#e1d5e7;strokeColor=#9673a6;" vertex="1" parent="1">
                    <mxGeometry x="552.5" y="340" width="155" height="170" as="geometry"/>
                </mxCell>
            </root>
        </mxGraphModel>
    </diagram>
</mxfile>